<mxfile host="app.diagrams.net" modified="2023-06-08T10:32:44.972Z" agent="Mozilla/5.0 (Windows NT 10.0; Win64; x64) AppleWebKit/537.36 (KHTML, like Gecko) Chrome/112.0.0.0 YaBrowser/23.5.1.714 Yowser/2.5 Safari/537.36" etag="vO02qAjBDTC0FUYReYK9" version="21.2.3" type="device">
  <diagram name="Страница 1" id="klCRWVCIViekjwjbWWE7">
    <mxGraphModel dx="1386" dy="791" grid="1" gridSize="10" guides="1" tooltips="1" connect="1" arrows="1" fold="1" page="1" pageScale="1" pageWidth="827" pageHeight="1169" math="0" shadow="0">
      <root>
        <mxCell id="0" />
        <mxCell id="1" parent="0" />
        <mxCell id="v3ju2A02DJZvRNDh2hFI-1" value="cars API" style="rounded=1;whiteSpace=wrap;html=1;fillColor=#dae8fc;strokeColor=#6c8ebf;" vertex="1" parent="1">
          <mxGeometry x="199" y="86" width="360" height="60" as="geometry" />
        </mxCell>
        <mxCell id="v3ju2A02DJZvRNDh2hFI-2" value="my API" style="rounded=1;whiteSpace=wrap;html=1;fillColor=#d5e8d4;strokeColor=#82b366;" vertex="1" parent="1">
          <mxGeometry x="199" y="276" width="360" height="60" as="geometry" />
        </mxCell>
        <mxCell id="v3ju2A02DJZvRNDh2hFI-3" value="client" style="rounded=1;whiteSpace=wrap;html=1;fillColor=#dae8fc;strokeColor=#6c8ebf;" vertex="1" parent="1">
          <mxGeometry x="299" y="525" width="270" height="60" as="geometry" />
        </mxCell>
        <mxCell id="v3ju2A02DJZvRNDh2hFI-16" value="" style="rounded=1;whiteSpace=wrap;html=1;" vertex="1" parent="1">
          <mxGeometry x="249" y="296" width="60" height="30" as="geometry" />
        </mxCell>
        <mxCell id="v3ju2A02DJZvRNDh2hFI-17" value="cars.js" style="text;strokeColor=#d6b656;align=center;fillColor=#fff2cc;html=1;verticalAlign=middle;whiteSpace=wrap;rounded=0;" vertex="1" parent="1">
          <mxGeometry x="249" y="296" width="60" height="30" as="geometry" />
        </mxCell>
        <mxCell id="v3ju2A02DJZvRNDh2hFI-18" value="" style="shape=flexArrow;endArrow=classic;html=1;rounded=0;entryX=0.078;entryY=1;entryDx=0;entryDy=0;entryPerimeter=0;fillColor=#f5f5f5;strokeColor=#666666;" edge="1" parent="1">
          <mxGeometry width="50" height="50" relative="1" as="geometry">
            <mxPoint x="219" y="276" as="sourcePoint" />
            <mxPoint x="219.07999999999993" y="146" as="targetPoint" />
          </mxGeometry>
        </mxCell>
        <mxCell id="v3ju2A02DJZvRNDh2hFI-20" value="" style="shape=flexArrow;endArrow=classic;html=1;rounded=0;exitX=0.217;exitY=1;exitDx=0;exitDy=0;exitPerimeter=0;entryX=0.5;entryY=0;entryDx=0;entryDy=0;fillColor=#f5f5f5;strokeColor=#666666;" edge="1" parent="1" source="v3ju2A02DJZvRNDh2hFI-1" target="v3ju2A02DJZvRNDh2hFI-17">
          <mxGeometry width="50" height="50" relative="1" as="geometry">
            <mxPoint x="499" y="326" as="sourcePoint" />
            <mxPoint x="549" y="276" as="targetPoint" />
          </mxGeometry>
        </mxCell>
        <mxCell id="v3ju2A02DJZvRNDh2hFI-35" value="Text" style="edgeLabel;html=1;align=center;verticalAlign=middle;resizable=0;points=[];fontStyle=5" vertex="1" connectable="0" parent="v3ju2A02DJZvRNDh2hFI-20">
          <mxGeometry x="0.5331" y="-2" relative="1" as="geometry">
            <mxPoint x="2" y="-25" as="offset" />
          </mxGeometry>
        </mxCell>
        <mxCell id="v3ju2A02DJZvRNDh2hFI-26" value="" style="rounded=1;whiteSpace=wrap;html=1;" vertex="1" parent="1">
          <mxGeometry x="437" y="296" width="82" height="30" as="geometry" />
        </mxCell>
        <mxCell id="v3ju2A02DJZvRNDh2hFI-27" value="log.txt" style="text;strokeColor=#d6b656;align=center;fillColor=#fff2cc;html=1;verticalAlign=middle;whiteSpace=wrap;rounded=0;" vertex="1" parent="1">
          <mxGeometry x="437" y="296" width="82" height="30" as="geometry" />
        </mxCell>
        <mxCell id="v3ju2A02DJZvRNDh2hFI-32" value="middleware" style="rounded=1;whiteSpace=wrap;html=1;fillColor=#f8cecc;strokeColor=#b85450;" vertex="1" parent="1">
          <mxGeometry x="199" y="336" width="290" height="20" as="geometry" />
        </mxCell>
        <mxCell id="v3ju2A02DJZvRNDh2hFI-33" value="" style="shape=flexArrow;endArrow=classic;html=1;rounded=0;entryX=0.078;entryY=1;entryDx=0;entryDy=0;entryPerimeter=0;exitX=0.632;exitY=-0.05;exitDx=0;exitDy=0;exitPerimeter=0;fillColor=#f5f5f5;strokeColor=#666666;" edge="1" parent="1">
          <mxGeometry width="50" height="50" relative="1" as="geometry">
            <mxPoint x="466" y="522" as="sourcePoint" />
            <mxPoint x="466.5" y="326" as="targetPoint" />
          </mxGeometry>
        </mxCell>
        <mxCell id="v3ju2A02DJZvRNDh2hFI-34" value="" style="shape=flexArrow;endArrow=classic;html=1;rounded=0;exitX=0.217;exitY=1;exitDx=0;exitDy=0;exitPerimeter=0;entryX=0.75;entryY=0;entryDx=0;entryDy=0;fillColor=#f5f5f5;strokeColor=#666666;" edge="1" parent="1">
          <mxGeometry width="50" height="50" relative="1" as="geometry">
            <mxPoint x="507" y="326" as="sourcePoint" />
            <mxPoint x="509.5" y="525" as="targetPoint" />
          </mxGeometry>
        </mxCell>
        <mxCell id="v3ju2A02DJZvRNDh2hFI-36" value="request" style="text;html=1;align=center;verticalAlign=middle;resizable=0;points=[];autosize=1;strokeColor=#82b366;fillColor=#d5e8d4;" vertex="1" parent="1">
          <mxGeometry x="190" y="196" width="60" height="30" as="geometry" />
        </mxCell>
        <mxCell id="v3ju2A02DJZvRNDh2hFI-38" value="response" style="text;html=1;align=center;verticalAlign=middle;resizable=0;points=[];autosize=1;strokeColor=#6c8ebf;fillColor=#dae8fc;" vertex="1" parent="1">
          <mxGeometry x="254" y="196" width="70" height="30" as="geometry" />
        </mxCell>
        <mxCell id="v3ju2A02DJZvRNDh2hFI-39" value="request" style="text;html=1;align=center;verticalAlign=middle;resizable=0;points=[];autosize=1;strokeColor=#6c8ebf;fillColor=#dae8fc;" vertex="1" parent="1">
          <mxGeometry x="430" y="445" width="60" height="30" as="geometry" />
        </mxCell>
        <mxCell id="v3ju2A02DJZvRNDh2hFI-40" value="text" style="text;html=1;align=center;verticalAlign=middle;resizable=0;points=[];autosize=1;strokeColor=none;fillColor=none;fontStyle=5" vertex="1" parent="1">
          <mxGeometry x="446" y="473" width="40" height="30" as="geometry" />
        </mxCell>
        <mxCell id="v3ju2A02DJZvRNDh2hFI-41" value="response" style="text;html=1;align=center;verticalAlign=middle;resizable=0;points=[];autosize=1;strokeColor=#82b366;fillColor=#d5e8d4;" vertex="1" parent="1">
          <mxGeometry x="479" y="376" width="70" height="30" as="geometry" />
        </mxCell>
      </root>
    </mxGraphModel>
  </diagram>
</mxfile>
